<svg width="48" height="48" viewBox="0 0 48 48" fill="none" xmlns="http://www.w3.org/2000/svg">
<g id="logo_deepseek">
<rect width="48" height="48" rx="8" fill="white"/>
<path id="path" d="M44.5594 10.7634C44.1145 10.5447 43.9229 10.9614 43.6628 11.1731C43.5738 11.2414 43.4985 11.3301 43.4232 11.4121C42.7729 12.1086 42.0132 12.5662 41.0208 12.5115C39.5697 12.4295 38.3309 12.8872 37.2357 14.0003C37.003 12.6277 36.2296 11.8081 35.0523 11.2824C34.4364 11.0091 33.8135 10.7359 33.3822 10.1418C33.0812 9.71852 32.9989 9.24733 32.8484 8.7829C32.7526 8.50292 32.6568 8.21599 32.335 8.16823C31.986 8.1137 31.8491 8.40722 31.7122 8.65316C31.1646 9.65704 30.9525 10.7634 30.9729 11.8833C31.0208 14.4032 32.0818 16.4109 34.1899 17.8382C34.4295 18.0021 34.4911 18.1659 34.4158 18.405C34.272 18.8967 34.1009 19.3747 33.9504 19.8664C33.8545 20.1806 33.7108 20.2489 33.3754 20.1122C32.2187 19.6274 31.2193 18.9103 30.3364 18.0431C28.8375 16.5885 27.4822 14.9837 25.7917 13.7271C25.3947 13.4334 24.9977 13.1604 24.587 12.9007C22.8621 11.2209 24.8129 9.84131 25.2646 9.67753C25.7368 9.50681 25.4289 8.91941 23.9025 8.92636C22.3762 8.93313 20.9799 9.44532 19.2004 10.1282C18.9403 10.2307 18.6664 10.3057 18.3858 10.3672C16.7705 10.06 15.0936 9.99155 13.3414 10.1897C10.0423 10.5584 7.40724 12.1223 5.47021 14.7925C3.14302 18.0021 2.5955 21.6487 3.26626 25.4525C3.97123 29.4611 6.01089 32.78 9.14568 35.3751C12.3969 38.0656 16.1409 39.3838 20.4118 39.131C23.0059 38.9808 25.8943 38.6326 29.1523 35.8668C29.9736 36.2766 30.836 36.4404 32.2666 36.5633C33.3686 36.6658 34.4295 36.5088 35.2508 36.3381C36.5376 36.0649 36.4486 34.8697 35.9832 34.6513C32.2119 32.8894 33.04 33.6064 32.2871 33.0259C34.2036 30.7519 37.0921 28.389 38.2214 20.7336C38.3103 20.1259 38.235 19.7434 38.2214 19.2517C38.2145 18.9513 38.283 18.8353 38.6252 18.801C39.5697 18.6918 40.4869 18.4323 41.3288 17.9679C43.7723 16.6295 44.7578 14.4305 44.9906 11.7945C45.0249 11.3916 44.9838 10.9749 44.5594 10.7634ZM23.266 34.4873C19.611 31.6056 17.8383 30.6562 17.1059 30.6972C16.4215 30.7382 16.5447 31.5236 16.6952 32.0358C16.8527 32.541 17.058 32.8894 17.3454 33.3332C17.5439 33.6269 17.6809 34.0638 17.147 34.3918C15.9697 35.1225 13.9232 34.1458 13.8273 34.0981C11.4455 32.6912 9.45374 30.8337 8.05054 28.2935C6.69534 25.8485 5.90826 23.2263 5.77818 20.4264C5.74397 19.7504 5.94247 19.5112 6.61323 19.3884C7.49618 19.2245 8.40649 19.1902 9.28944 19.32C13.0198 19.8664 16.1956 21.5395 18.8581 24.1891C20.3776 25.6983 21.5275 27.5013 22.7116 29.2631C23.971 31.1342 25.3262 32.9167 27.051 34.378C27.6602 34.8902 28.1461 35.2794 28.6116 35.5663C27.2085 35.7234 24.8676 35.7576 23.266 34.4873ZM25.0182 23.1853C25.0182 22.8848 25.2578 22.6459 25.559 22.6459C25.6274 22.6459 25.6889 22.6594 25.7437 22.6799C25.8191 22.7073 25.8875 22.7483 25.9422 22.8096C26.0381 22.9053 26.0928 23.0418 26.0928 23.1853C26.0928 23.4858 25.8533 23.7247 25.5521 23.7247C25.2509 23.7247 25.0182 23.4858 25.0182 23.1853ZM30.4596 25.9852C30.1106 26.1287 29.7615 26.2515 29.4261 26.2652C28.9059 26.2925 28.3378 26.0807 28.0299 25.8212C27.5508 25.4183 27.2085 25.1931 27.0647 24.4896C27.0031 24.1891 27.0373 23.7247 27.0921 23.4585C27.2153 22.8848 27.0784 22.5161 26.6746 22.1814C26.346 21.9082 25.9285 21.8332 25.4699 21.8332C25.2988 21.8332 25.1415 21.758 25.025 21.6965C24.8334 21.6009 24.6761 21.362 24.8266 21.0683C24.8745 20.9728 25.1072 20.7406 25.162 20.6996C25.7848 20.3444 26.5035 20.4605 27.1674 20.7269C27.7835 20.9795 28.2489 21.4439 28.9196 22.0995C29.604 22.8916 29.7272 23.1103 30.1174 23.7043C30.4255 24.1687 30.7061 24.6467 30.8977 25.1931C31.014 25.5345 30.8635 25.8145 30.4596 25.9852Z" fill="#4D6BFE"/>
</g>
</svg>
